<?xml version="1.0" encoding="UTF-8"?>
<!DOCTYPE svg PUBLIC "-//W3C//DTD SVG 1.1//EN" "http://www.w3.org/Graphics/SVG/1.1/DTD/svg11.dtd">
<svg xmlns="http://www.w3.org/2000/svg" version="1.1" width="512px" height="512px" style="shape-rendering:geometricPrecision; text-rendering:geometricPrecision; image-rendering:optimizeQuality; fill-rule:evenodd; clip-rule:evenodd" xmlns:xlink="http://www.w3.org/1999/xlink">
<g><path style="opacity:0.987" fill="#b7aafd" d="M 249.5,-0.5 C 253.833,-0.5 258.167,-0.5 262.5,-0.5C 269.833,3.83333 277.167,8.16667 284.5,12.5C 283.504,27.6576 283.17,42.9909 283.5,58.5C 274.292,53.6445 265.125,48.6445 256,43.5C 252.207,45.6457 248.374,47.6457 244.5,49.5C 243.504,34.3424 243.17,19.0091 243.5,3.5C 245.5,2.16667 247.5,0.833333 249.5,-0.5 Z"/></g>
<g><path style="opacity:0.981" fill="#b0b0fe" d="M 243.5,3.5 C 243.17,19.0091 243.504,34.3424 244.5,49.5C 239.498,53.0031 234.165,56.0031 228.5,58.5C 228.83,42.9909 228.496,27.6576 227.5,12.5C 232.502,8.99688 237.835,5.99688 243.5,3.5 Z"/></g>
<g><path style="opacity:0.985" fill="#abb3fe" d="M 227.5,12.5 C 228.496,27.6576 228.83,42.9909 228.5,58.5C 220.168,64.0019 211.501,69.0019 202.5,73.5C 202.83,57.9909 202.496,42.6576 201.5,27.5C 209.804,22.0098 218.471,17.0098 227.5,12.5 Z"/></g>
<g><path style="opacity:0.983" fill="#bea4fd" d="M 284.5,12.5 C 293.529,17.0098 302.196,22.0098 310.5,27.5C 309.504,42.6576 309.17,57.9909 309.5,73.5C 300.499,69.0019 291.832,64.0019 283.5,58.5C 283.17,42.9909 283.504,27.6576 284.5,12.5 Z"/></g>
<g><path style="opacity:0.984" fill="#a5b9fe" d="M 201.5,27.5 C 202.496,42.6576 202.83,57.9909 202.5,73.5C 194.168,79.0019 185.501,84.0019 176.5,88.5C 176.5,72.8333 176.5,57.1667 176.5,41.5C 184.672,36.5799 193.005,31.9132 201.5,27.5 Z"/></g>
<g><path style="opacity:0.983" fill="#c49ffd" d="M 310.5,27.5 C 319.529,32.0098 328.196,37.0098 336.5,42.5C 335.504,57.6576 335.17,72.9909 335.5,88.5C 326.499,84.0019 317.832,79.0019 309.5,73.5C 309.17,57.9909 309.504,42.6576 310.5,27.5 Z"/></g>
<g><path style="opacity:0.984" fill="#9fbefe" d="M 176.5,41.5 C 176.5,57.1667 176.5,72.8333 176.5,88.5C 167.098,94.5575 157.431,100.224 147.5,105.5C 146.504,90.3424 146.17,75.0091 146.5,59.5C 156.216,53.1373 166.216,47.1373 176.5,41.5 Z"/></g>
<g><path style="opacity:0.982" fill="#cb99fd" d="M 336.5,42.5 C 346.031,47.0924 355.031,52.4257 363.5,58.5C 363.5,74.1667 363.5,89.8333 363.5,105.5C 354.131,99.8189 344.797,94.1522 335.5,88.5C 335.17,72.9909 335.504,57.6576 336.5,42.5 Z"/></g>
<g><path style="opacity:0.981" fill="#98c3fe" d="M 146.5,59.5 C 146.17,75.0091 146.504,90.3424 147.5,105.5C 139.368,110.737 131.035,115.737 122.5,120.5C 122.5,104.833 122.5,89.1667 122.5,73.5C 130.164,68.332 138.164,63.6653 146.5,59.5 Z"/></g>
<g><path style="opacity:0.982" fill="#d194fd" d="M 363.5,58.5 C 372.688,62.7091 381.355,67.7091 389.5,73.5C 389.5,89.1667 389.5,104.833 389.5,120.5C 380.833,115.5 372.167,110.5 363.5,105.5C 363.5,89.8333 363.5,74.1667 363.5,58.5 Z"/></g>
<g><path style="opacity:0.983" fill="#92c8fe" d="M 122.5,73.5 C 122.5,89.1667 122.5,104.833 122.5,120.5C 114.167,125.167 105.833,129.833 97.5,134.5C 97.5278,118.527 97.5278,102.86 97.5,87.5C 105.341,82.0766 113.674,77.4099 122.5,73.5 Z"/></g>
<g><path style="opacity:0.987" fill="#d88ffc" d="M 389.5,73.5 C 398.326,77.4099 406.659,82.0766 414.5,87.5C 414.5,103.167 414.5,118.833 414.5,134.5C 406.167,129.833 397.833,125.167 389.5,120.5C 389.5,104.833 389.5,89.1667 389.5,73.5 Z"/></g>
<g><path style="opacity:0.982" fill="#8dccff" d="M 97.5,87.5 C 97.5278,102.86 97.5278,118.527 97.5,134.5C 91.8302,138.337 85.8302,141.67 79.5,144.5C 79.5,128.833 79.5,113.167 79.5,97.5C 85.5,94.1667 91.5,90.8333 97.5,87.5 Z"/></g>
<g><path style="opacity:0.983" fill="#dd8afc" d="M 414.5,87.5 C 423.529,92.0098 432.196,97.0098 440.5,102.5C 440.5,118.167 440.5,133.833 440.5,149.5C 431.798,144.485 423.131,139.485 414.5,134.5C 414.5,118.833 414.5,103.167 414.5,87.5 Z"/></g>
<g><path style="opacity:0.998" fill="#e385fc" d="M 440.5,102.5 C 448.199,106.344 455.532,110.678 462.5,115.5C 462.5,208.833 462.5,302.167 462.5,395.5C 455.532,400.322 448.199,404.656 440.5,408.5C 440.5,392.833 440.5,377.167 440.5,361.5C 440.5,290.833 440.5,220.167 440.5,149.5C 440.5,133.833 440.5,118.167 440.5,102.5 Z"/></g>
<g><path style="opacity:0.998" fill="#87d1ff" d="M 79.5,97.5 C 79.5,113.167 79.5,128.833 79.5,144.5C 77.3239,146.515 74.8239,148.182 72,149.5C 71.3333,220.167 71.3333,290.833 72,361.5C 74.8239,362.818 77.3239,364.485 79.5,366.5C 79.5,382.167 79.5,397.833 79.5,413.5C 69.2157,407.863 59.2157,401.863 49.5,395.5C 49.5,302.167 49.5,208.833 49.5,115.5C 59.2157,109.137 69.2157,103.137 79.5,97.5 Z"/></g>
<g><path style="opacity:0.996" fill="#82d6ff" d="M 49.5,115.5 C 49.5,208.833 49.5,302.167 49.5,395.5C 41.2534,392.751 35.42,387.418 32,379.5C 31.3333,296.833 31.3333,214.167 32,131.5C 35.42,123.582 41.2534,118.249 49.5,115.5 Z"/></g>
<g><path style="opacity:0.994" fill="#e881fc" d="M 462.5,115.5 C 470.747,118.249 476.58,123.582 480,131.5C 480.667,214.167 480.667,296.833 480,379.5C 476.58,387.418 470.747,392.751 462.5,395.5C 462.5,302.167 462.5,208.833 462.5,115.5 Z"/></g>
<g><path style="opacity:0.985" fill="#bea4fd" d="M 284.5,244.5 C 283.502,218.672 283.169,192.672 283.5,166.5C 304.272,163.772 313.105,172.772 310,193.5C 301.487,210.527 292.987,227.527 284.5,244.5 Z"/></g>
<g><path style="opacity:0.99" fill="#baa7fd" d="M 283.5,166.5 C 283.169,192.672 283.502,218.672 284.5,244.5C 281.167,251.167 277.833,257.833 274.5,264.5C 273.833,235.167 273.167,205.833 272.5,176.5C 274.892,171.775 278.559,168.442 283.5,166.5 Z"/></g>
<g><path style="opacity:0.979" fill="#b7a9fd" d="M 272.5,176.5 C 273.167,205.833 273.833,235.167 274.5,264.5C 269.739,274.358 264.739,284.025 259.5,293.5C 258.502,264.338 258.169,235.005 258.5,205.5C 262.897,195.707 267.563,186.04 272.5,176.5 Z"/></g>
<g><path style="opacity:0.96" fill="#9fbdfe" d="M 148.5,246.5 C 149.031,244.456 150.198,242.789 152,241.5C 152.829,223.329 152.662,205.329 151.5,187.5C 161.766,182.295 170.599,184.295 178,193.5C 183.111,202.612 182.444,211.279 176,219.5C 166.965,228.702 157.798,237.702 148.5,246.5 Z"/></g>
<g><path style="opacity:0.983" fill="#cb99fd" d="M 363.5,189.5 C 363.5,208.5 363.5,227.5 363.5,246.5C 354.202,237.702 345.035,228.702 336,219.5C 329.556,211.279 328.889,202.612 334,193.5C 342.817,183.282 352.65,181.949 363.5,189.5 Z"/></g>
<g><path style="opacity:0.994" fill="#99c3fe" d="M 151.5,187.5 C 152.662,205.329 152.829,223.329 152,241.5C 150.198,242.789 149.031,244.456 148.5,246.5C 145.856,249.48 143.189,252.48 140.5,255.5C 143.189,258.52 145.856,261.52 148.5,264.5C 149.031,266.544 150.198,268.211 152,269.5C 152.829,287.671 152.662,305.671 151.5,323.5C 149.745,322.928 148.078,322.094 146.5,321C 137.964,312.632 129.631,304.132 121.5,295.5C 122.498,268.672 122.831,241.672 122.5,214.5C 131.258,204.405 140.924,195.405 151.5,187.5 Z"/></g>
<g><path style="opacity:0.983" fill="#d194fd" d="M 363.5,189.5 C 373.113,197.445 382.113,206.111 390.5,215.5C 389.173,242.264 389.173,268.931 390.5,295.5C 382.113,304.889 373.113,313.555 363.5,321.5C 363.5,302.5 363.5,283.5 363.5,264.5C 366.144,261.52 368.811,258.52 371.5,255.5C 368.811,252.48 366.144,249.48 363.5,246.5C 363.5,227.5 363.5,208.5 363.5,189.5 Z"/></g>
<g><path style="opacity:0.97" fill="#b3acfd" d="M 258.5,205.5 C 258.169,235.005 258.502,264.338 259.5,293.5C 254.675,304.484 249.341,315.151 243.5,325.5C 243.831,295.995 243.498,266.662 242.5,237.5C 247.325,226.516 252.659,215.849 258.5,205.5 Z"/></g>
<g><path style="opacity:0.99" fill="#92c8fe" d="M 122.5,214.5 C 122.831,241.672 122.498,268.672 121.5,295.5C 112.535,287.036 103.702,278.369 95,269.5C 87.7562,259.62 88.0895,249.953 96,240.5C 104.702,231.631 113.535,222.964 122.5,214.5 Z"/></g>
<g><path style="opacity:0.989" fill="#d88ffc" d="M 390.5,215.5 C 401.197,225.03 411.03,235.363 420,246.5C 423.18,254.626 422.18,262.293 417,269.5C 408.298,278.369 399.465,287.036 390.5,295.5C 389.173,268.931 389.173,242.264 390.5,215.5 Z"/></g>
<g><path style="opacity:0.981" fill="#b0affe" d="M 242.5,237.5 C 243.498,266.662 243.831,295.995 243.5,325.5C 241.102,334.001 236.102,340.334 228.5,344.5C 228.5,318.167 228.5,291.833 228.5,265.5C 232.659,255.849 237.325,246.516 242.5,237.5 Z"/></g>
<g><path style="opacity:0.96" fill="#9fbdfe" d="M 148.5,264.5 C 157.798,273.298 166.965,282.298 176,291.5C 184.079,303.031 182.913,313.531 172.5,323C 165.447,327.369 158.447,327.536 151.5,323.5C 152.662,305.671 152.829,287.671 152,269.5C 150.198,268.211 149.031,266.544 148.5,264.5 Z"/></g>
<g><path style="opacity:0.971" fill="#acb3fe" d="M 228.5,265.5 C 228.5,291.833 228.5,318.167 228.5,344.5C 207.75,347.25 198.917,338.25 202,317.5C 210.608,299.95 219.441,282.616 228.5,265.5 Z"/></g>
<g><path style="opacity:0.983" fill="#cb99fd" d="M 363.5,264.5 C 363.5,283.5 363.5,302.5 363.5,321.5C 352.65,329.051 342.817,327.718 334,317.5C 328.889,308.388 329.556,299.721 336,291.5C 345.035,282.298 354.202,273.298 363.5,264.5 Z"/></g>
<g><path style="opacity:0.982" fill="#8dccff" d="M 79.5,366.5 C 85.8302,369.33 91.8302,372.663 97.5,376.5C 97.5278,392.473 97.5278,408.14 97.5,423.5C 91.5,420.167 85.5,416.833 79.5,413.5C 79.5,397.833 79.5,382.167 79.5,366.5 Z"/></g>
<g><path style="opacity:0.983" fill="#dd8afc" d="M 440.5,361.5 C 440.5,377.167 440.5,392.833 440.5,408.5C 432.196,413.99 423.529,418.99 414.5,423.5C 414.5,407.833 414.5,392.167 414.5,376.5C 423.131,371.515 431.798,366.515 440.5,361.5 Z"/></g>
<g><path style="opacity:0.983" fill="#92c8fe" d="M 97.5,376.5 C 105.833,381.167 114.167,385.833 122.5,390.5C 122.5,406.167 122.5,421.833 122.5,437.5C 113.674,433.59 105.341,428.923 97.5,423.5C 97.5278,408.14 97.5278,392.473 97.5,376.5 Z"/></g>
<g><path style="opacity:0.988" fill="#d78ffc" d="M 414.5,376.5 C 414.5,392.167 414.5,407.833 414.5,423.5C 406.659,428.923 398.326,433.59 389.5,437.5C 389.5,421.833 389.5,406.167 389.5,390.5C 397.833,385.833 406.167,381.167 414.5,376.5 Z"/></g>
<g><path style="opacity:0.981" fill="#98c3fe" d="M 122.5,390.5 C 131.035,395.263 139.368,400.263 147.5,405.5C 146.504,420.658 146.17,435.991 146.5,451.5C 138.164,447.335 130.164,442.668 122.5,437.5C 122.5,421.833 122.5,406.167 122.5,390.5 Z"/></g>
<g><path style="opacity:0.982" fill="#d194fd" d="M 389.5,390.5 C 389.5,406.167 389.5,421.833 389.5,437.5C 381.355,443.291 372.688,448.291 363.5,452.5C 363.5,436.833 363.5,421.167 363.5,405.5C 372.167,400.5 380.833,395.5 389.5,390.5 Z"/></g>
<g><path style="opacity:0.982" fill="#cb99fd" d="M 363.5,405.5 C 363.5,421.167 363.5,436.833 363.5,452.5C 355.031,458.574 346.031,463.908 336.5,468.5C 335.504,453.342 335.17,438.009 335.5,422.5C 344.797,416.848 354.131,411.181 363.5,405.5 Z"/></g>
<g><path style="opacity:0.984" fill="#9fbefe" d="M 147.5,405.5 C 157.431,410.776 167.098,416.442 176.5,422.5C 176.5,438.167 176.5,453.833 176.5,469.5C 166.216,463.863 156.216,457.863 146.5,451.5C 146.17,435.991 146.504,420.658 147.5,405.5 Z"/></g>
<g><path style="opacity:0.984" fill="#a5b9fe" d="M 176.5,422.5 C 185.501,426.998 194.168,431.998 202.5,437.5C 202.83,453.009 202.496,468.342 201.5,483.5C 193.005,479.087 184.672,474.42 176.5,469.5C 176.5,453.833 176.5,438.167 176.5,422.5 Z"/></g>
<g><path style="opacity:0.983" fill="#c49ffd" d="M 335.5,422.5 C 335.17,438.009 335.504,453.342 336.5,468.5C 328.196,473.99 319.529,478.99 310.5,483.5C 309.504,468.342 309.17,453.009 309.5,437.5C 317.832,431.998 326.499,426.998 335.5,422.5 Z"/></g>
<g><path style="opacity:0.985" fill="#abb3fe" d="M 202.5,437.5 C 211.501,441.998 220.168,446.998 228.5,452.5C 228.83,468.009 228.496,483.342 227.5,498.5C 218.471,493.99 209.804,488.99 201.5,483.5C 202.496,468.342 202.83,453.009 202.5,437.5 Z"/></g>
<g><path style="opacity:0.983" fill="#bea4fd" d="M 309.5,437.5 C 309.17,453.009 309.504,468.342 310.5,483.5C 302.196,488.99 293.529,493.99 284.5,498.5C 283.504,483.342 283.17,468.009 283.5,452.5C 291.832,446.998 300.499,441.998 309.5,437.5 Z"/></g>
<g><path style="opacity:0.987" fill="#b8a9fd" d="M 283.5,452.5 C 283.17,468.009 283.504,483.342 284.5,498.5C 277.167,502.833 269.833,507.167 262.5,511.5C 261.167,511.5 259.833,511.5 258.5,511.5C 258.5,496.5 258.5,481.5 258.5,466.5C 266.664,461.583 274.997,456.917 283.5,452.5 Z"/></g>
<g><path style="opacity:0.986" fill="#b2adfd" d="M 228.5,452.5 C 237.274,457.056 245.94,461.889 254.5,467C 255.928,467.579 257.262,467.412 258.5,466.5C 258.5,481.5 258.5,496.5 258.5,511.5C 255.5,511.5 252.5,511.5 249.5,511.5C 242.167,507.167 234.833,502.833 227.5,498.5C 228.496,483.342 228.83,468.009 228.5,452.5 Z"/></g>
</svg>
